# xmcd CD database file
#
# Track frame offsets:
#	150
#	18854
#	32055
#	47001
#	64065
#	81398
#	93077
#	106782
#	120577
#	140647
#	157027
#	177478
#	194482
#
# Disc length: 2838 seconds
#
# Revision: 0
# Processed by: cddbd v1.5.1PL2 Copyright (c) Steve Scherf et al.
# Submitted via: CDex 1.51
#
DISCID=ab0b140d
DTITLE=Hacienda Brothers - What's Wrong With Right
DYEAR=2006
DGENRE=Country
TTITLE0=Midnight Dream
TTITLE1=What's Wrong With Right
TTITLE2=Keep It Together
TTITLE3=Cry Like a Baby
TTITLE4=It Tears Me Up
TTITLE5=The Last Time
TTITLE6=If Daddy Don't Sing Danny Boy
TTITLE7=Rebound
TTITLE8=Cowboys To Girls
TTITLE9=Different Today
TTITLE10=Life's Little Ups and Downs
TTITLE11=The Warning
TTITLE12=Son of Saguaro
EXTD=YEAR: 2006
EXTT0=
EXTT1=
EXTT2=
EXTT3=
EXTT4=
EXTT5=
EXTT6=
EXTT7=
EXTT8=
EXTT9=
EXTT10=
EXTT11=
EXTT12=
PLAYORDER=
